<?xml version="1.0" encoding="iso-8859-1"?>
<!-- Generator: Adobe Illustrator 19.0.0, SVG Export Plug-In . SVG Version: 6.00 Build 0)  -->
<svg version="1.1" id="Layer_1" xmlns="http://www.w3.org/2000/svg" xmlns:xlink="http://www.w3.org/1999/xlink" x="0px" y="0px"
	 viewBox="0 0 468.221 468.221" style="enable-background:new 0 0 468.221 468.221;" xml:space="preserve">
<g>
	<g>
		<g>
			<path d="M460.721,67.059h-203.28c-9.313,0-17.673,4.149-23.331,10.697c-5.658-6.548-14.018-10.697-23.331-10.697H7.5
				c-4.142,0-7.5,3.358-7.5,7.5v319.104c0,4.142,3.358,7.5,7.5,7.5h453.221c4.143,0,7.5-3.358,7.5-7.5V74.559
				C468.221,70.417,464.864,67.059,460.721,67.059z M15,386.161v-14.998h195.783c4.227,0,8.201,1.647,11.19,4.637
				c2.792,2.792,4.393,6.447,4.596,10.361H15z M226.611,360.525c-4.733-2.843-10.164-4.36-15.828-4.36H15V82.059h195.78
				c8.729,0,15.831,7.102,15.831,15.831V360.525z M373.602,82.059h33v78.379l-12-9c-2.666-2-6.334-2-9,0l-12,9V82.059z
				 M453.221,386.161H241.653c0.439-8.342,7.341-14.998,15.786-14.998h195.782V386.161z M453.222,356.164H257.439
				c-5.782,0-11.199,1.601-15.828,4.383V97.888c0-8.729,7.102-15.831,15.83-15.831h101.161v41.802h-59.995
				c-4.143,0-7.5,3.358-7.5,7.5c0,4.142,3.357,7.5,7.5,7.5h59.995v18.298h-59.995c-4.143,0-7.5,3.358-7.5,7.5
				c0,4.142,3.357,7.5,7.5,7.5h59.995v3.279c0,2.841,1.605,5.438,4.146,6.708c2.541,1.27,5.581,0.997,7.854-0.708l19.5-14.625
				l19.5,14.625c1.323,0.993,2.907,1.5,4.501,1.5c1.144,0,2.292-0.261,3.354-0.792c2.54-1.271,4.146-3.867,4.146-6.708V82.059
				h31.619V356.164z"/>
			<path d="M169.614,123.861H54.12c-4.142,0-7.5,3.358-7.5,7.5c0,4.142,3.358,7.5,7.5,7.5h115.494c4.142,0,7.5-3.358,7.5-7.5
				C177.114,127.219,173.756,123.861,169.614,123.861z"/>
			<path d="M169.614,157.159H54.12c-4.142,0-7.5,3.358-7.5,7.5c0,4.142,3.358,7.5,7.5,7.5h115.494c4.142,0,7.5-3.358,7.5-7.5
				C177.114,160.516,173.756,157.159,169.614,157.159z"/>
			<path d="M169.614,223.755H54.12c-4.142,0-7.5,3.358-7.5,7.5c0,4.142,3.358,7.5,7.5,7.5h115.494c4.142,0,7.5-3.358,7.5-7.5
				C177.114,227.114,173.756,223.755,169.614,223.755z"/>
			<path d="M169.614,290.352H54.12c-4.142,0-7.5,3.358-7.5,7.5c0,4.142,3.358,7.5,7.5,7.5h115.494c4.142,0,7.5-3.358,7.5-7.5
				C177.114,293.711,173.756,290.352,169.614,290.352z"/>
			<path d="M54.12,205.458h16.479c4.142,0,7.5-3.358,7.5-7.5c0-4.142-3.358-7.5-7.5-7.5H54.12c-4.142,0-7.5,3.358-7.5,7.5
				C46.62,202.099,49.978,205.458,54.12,205.458z"/>
			<path d="M99.948,197.776c-0.162-6.383-8.266-9.782-12.795-5.116c-2.529,2.455-2.858,6.511-0.956,9.43
				c-0.06-0.089-0.105-0.153,0.016,0.03c0.114,0.166,0.09,0.129,0.041,0.055c0.27,0.389,0.565,0.761,0.899,1.086
				C91.802,208.049,100.115,204.331,99.948,197.776z"/>
			<path d="M169.614,190.458h-54.661c-4.142,0-7.5,3.358-7.5,7.5c0,4.142,3.358,7.5,7.5,7.5h54.661c4.142,0,7.5-3.358,7.5-7.5
				C177.114,193.815,173.756,190.458,169.614,190.458z"/>
			<path d="M169.614,257.053h-16.479c-4.142,0-7.5,3.358-7.5,7.5c0,4.142,3.358,7.5,7.5,7.5h16.479c4.142,0,7.5-3.358,7.5-7.5
				C177.114,260.411,173.756,257.053,169.614,257.053z"/>
			<path d="M136.584,259.25c-2.957-2.87-7.657-2.866-10.61,0c-2.331,2.402-2.862,6.075-1.21,9.006
				c1.571,2.787,4.81,4.227,7.94,3.658c-0.101,0.02-0.172,0.035,0.04-0.004c0.21-0.044,0.142-0.031,0.042-0.012
				c1.44-0.309,2.742-1.013,3.798-2.038C139.456,266.906,139.456,262.203,136.584,259.25z"/>
			<path d="M54.12,272.053h54.661c4.142,0,7.5-3.358,7.5-7.5c0-4.142-3.358-7.5-7.5-7.5H54.12c-4.142,0-7.5,3.358-7.5,7.5
				C46.62,268.695,49.978,272.053,54.12,272.053z"/>
			<path d="M414.102,290.352H298.607c-4.143,0-7.5,3.358-7.5,7.5c0,4.142,3.357,7.5,7.5,7.5h115.495c4.143,0,7.5-3.358,7.5-7.5
				C421.602,293.711,418.245,290.352,414.102,290.352z"/>
			<path d="M414.102,257.053H298.607c-4.143,0-7.5,3.358-7.5,7.5c0,4.142,3.357,7.5,7.5,7.5h115.495c4.143,0,7.5-3.358,7.5-7.5
				C421.602,260.411,418.245,257.053,414.102,257.053z"/>
			<path d="M414.102,190.458H298.607c-4.143,0-7.5,3.358-7.5,7.5c0,4.142,3.357,7.5,7.5,7.5h115.495c4.143,0,7.5-3.358,7.5-7.5
				C421.602,193.815,418.245,190.458,414.102,190.458z"/>
			<path d="M414.102,223.755h-16.479c-4.143,0-7.5,3.358-7.5,7.5c0,4.142,3.357,7.5,7.5,7.5h16.479c4.143,0,7.5-3.358,7.5-7.5
				C421.602,227.114,418.245,223.755,414.102,223.755z"/>
			<path d="M370.463,225.95c-4.302,4.432-1.652,12.153,4.57,12.773c6.19,0.616,10.38-6.467,6.97-11.633
				c-0.27-0.41-0.59-0.79-0.93-1.14C378.115,223.083,373.421,223.083,370.463,225.95z"/>
			<path d="M382.003,227.089C382.274,227.5,381.734,226.68,382.003,227.089L382.003,227.089z"/>
			<path d="M298.607,238.755h54.661c4.143,0,7.5-3.358,7.5-7.5c0-4.142-3.357-7.5-7.5-7.5h-54.661c-4.143,0-7.5,3.358-7.5,7.5
				C291.107,235.398,294.464,238.755,298.607,238.755z"/>
		</g>
	</g>
</g>
<g>
</g>
<g>
</g>
<g>
</g>
<g>
</g>
<g>
</g>
<g>
</g>
<g>
</g>
<g>
</g>
<g>
</g>
<g>
</g>
<g>
</g>
<g>
</g>
<g>
</g>
<g>
</g>
<g>
</g>
</svg>
