<?xml version="1.0" encoding="iso-8859-1"?>
<!-- Generator: Adobe Illustrator 19.0.0, SVG Export Plug-In . SVG Version: 6.00 Build 0)  -->
<svg version="1.1" id="Layer_1" xmlns="http://www.w3.org/2000/svg" xmlns:xlink="http://www.w3.org/1999/xlink" x="0px" y="0px"
	 viewBox="0 0 441 441" style="enable-background:new 0 0 441 441;" xml:space="preserve">
<g>
	<g>
		<g>
			<path d="M342.014,0H98.986C66.461,0,40,26.461,40,58.986v323.027C40,414.539,66.461,441,98.986,441h243.027
				C374.539,441,401,414.539,401,382.014V58.986C401,26.461,374.539,0,342.014,0z M385,382.014C385,405.717,365.717,425,342.014,425
				H98.986C75.283,425,56,405.717,56,382.014V58.986C56,35.283,75.283,16,98.986,16h243.027C365.717,16,385,35.283,385,58.986
				V382.014z"/>
			<path d="M342.014,40H98.986C88.518,40,80,48.518,80,58.986v323.027C80,392.482,88.518,401,98.986,401h243.027
				c10.469,0,18.986-8.518,18.986-18.986V58.986C361,48.518,352.482,40,342.014,40z M342.014,385H98.986
				C97.34,385,96,383.66,96,382.014V58.986C96,57.34,97.34,56,98.986,56h243.027c1.646,0,2.986,1.34,2.986,2.986v323.028H345
				C345,383.66,343.66,385,342.014,385z"/>
			<path d="M275.5,144.5h-110c-4.418,0-8,3.582-8,8v35c0,4.418,3.582,8,8,8H195V316h-29.5c-4.418,0-8,3.582-8,8v35
				c0,4.418,3.582,8,8,8h110c4.418,0,8-3.582,8-8v-35c0-4.418-3.582-8-8-8H246V195.5h29.5c4.418,0,8-3.582,8-8v-35
				C283.5,148.082,279.918,144.5,275.5,144.5z M267.5,179.5H238c-4.418,0-8,3.582-8,8V324c0,4.418,3.582,8,8,8h29.5v19h-94v-19H203
				c4.418,0,8-3.582,8-8V187.5c0-4.418-3.582-8-8-8h-29.5v-19h94V179.5z"/>
			<path d="M220.5,131.5c16.817,0,30.5-13.683,30.5-30.5s-13.683-30.5-30.5-30.5S190,84.183,190,101S203.683,131.5,220.5,131.5z
				 M220.5,86.5c7.995,0,14.5,6.505,14.5,14.5s-6.505,14.5-14.5,14.5S206,108.995,206,101S212.505,86.5,220.5,86.5z"/>
		</g>
	</g>
</g>
<g>
</g>
<g>
</g>
<g>
</g>
<g>
</g>
<g>
</g>
<g>
</g>
<g>
</g>
<g>
</g>
<g>
</g>
<g>
</g>
<g>
</g>
<g>
</g>
<g>
</g>
<g>
</g>
<g>
</g>
</svg>
